<?xml version="1.0" encoding="UTF-8" standalone="no"?>
<!-- Created with Inkscape (http://www.inkscape.org/) -->

<svg
   width="210mm"
   height="297mm"
   viewBox="0 0 210 297"
   version="1.1"
   id="svg5"
   inkscape:version="1.1.2 (b8e25be833, 2022-02-05)"
   sodipodi:docname="rtl.svg"
   xmlns:inkscape="http://www.inkscape.org/namespaces/inkscape"
   xmlns:sodipodi="http://sodipodi.sourceforge.net/DTD/sodipodi-0.dtd"
   xmlns:xlink="http://www.w3.org/1999/xlink"
   xmlns="http://www.w3.org/2000/svg"
   xmlns:svg="http://www.w3.org/2000/svg">
  <sodipodi:namedview
     id="namedview7"
     pagecolor="#ffffff"
     bordercolor="#666666"
     borderopacity="1.0"
     inkscape:pageshadow="2"
     inkscape:pageopacity="0.0"
     inkscape:pagecheckerboard="0"
     inkscape:document-units="mm"
     showgrid="false"
     inkscape:zoom="0.49264169"
     inkscape:cx="89.314405"
     inkscape:cy="562.27478"
     inkscape:window-width="1366"
     inkscape:window-height="715"
     inkscape:window-x="-8"
     inkscape:window-y="-8"
     inkscape:window-maximized="1"
     inkscape:current-layer="Group-3" />
  <defs
     id="defs2">
    <polygon
       id="path-1"
       points="0.451852397 0.2573 52.6803 0.2573 52.6803 52 0.451852397 52" />
  </defs>
  <g
     inkscape:label="Layer 1"
     inkscape:groupmode="layer"
     id="layer1">
    <g
       id="BY_-_RTL_logo_wht"
       transform="matrix(0.26458333,0,0,0.26458333,45.695091,65.972314)"
       style="fill:none;fill-rule:evenodd;stroke:none;stroke-width:1">
      <g
         id="Group-3"
         transform="translate(0,0.737)"
         fill="#fffffe">
        <path
           d="m 360.6201,52.8608 c 1.952,4.603 2.734,8.24 2.627,10.241 -7.56,-4.555 -18.931,-8.427 -25.134,-9.537 -4.038,-0.724 9.18,-3.931 22.507,-0.704 m 10.985,169.337 c 2.338,-0.495 4.688,-0.968 7.04,-1.429 2.459,-0.483 4.924,-0.946 7.398,-1.383 -1.984,-1.25 -3.975,-2.488 -5.979,-3.707 -25.455,-15.488 -52.589,-28.639 -79.399,-41.367 -16.92,-8.033 -34.152,-16.018 -51.699,-23.215 15.306,-20.189 34.904,-37.323 55.851,-52 0.018,-0.012 0.103,-0.071 0.235,-0.164 4.585,6.257 10.381,10.515 13.287,12.115 5.681,3.13 12.836,6.055 19.414,6.949 12.936,1.759 23.617,1.488 35.434,-0.549 1.065,-0.183 2.138,-0.313 3.206,-0.491 7.578,-1.267 12.427,-1.459 16.866,-1.542 5.879,-0.11 8.791,1.135 9.483,1.315 2.1,0.543 3.885,1.442 4.877,2.648 1.152,1.468 2.383,2.853 3.702,4.121 3.956,3.937 7.884,6.117 13.583,6.742 7.335,0.804 12.527,-2.065 16.198,-6.828 1.734,-2.249 0.899,-5.781 0.709,-6.474 -0.963,-3.543 -3.186,-8.697 -4.795,-13.495 -0.417,-1.24 -2.438,-5.052 -4.87,-7.639 -0.803,-0.856 -1.611,-1.71 -2.418,-2.563 -3.777,-3.995 -7.584,-7.96 -11.358,-11.952 -15.059,-15.918 -31.384,-30.574 -48.214,-44.587 -1.744,-1.452 -3.491,-2.908 -5.241,-4.361 -1.269,-1.055 -2.543,-2.104 -3.815,-3.155 -0.647,-0.534 -1.293,-1.067 -1.942,-1.6 -1.369,-1.126 -2.742,-2.244 -4.118,-3.361 -0.543,-0.44 -1.088,-0.877 -1.632,-1.316 -0.857,-0.69 -2.813,-2.337 -4.46,-3.656 5.459,-5.442 9.864,-8.83 17.683,-13.953 1.121,-0.734 7.161,-3.956 6.948,-4.774 -0.128,-0.494 -10.045,-0.382 -21.408,1.082 -3.992,0.514 -26.367,3.818 -41.73,7.166 -16.354,3.563 -33.623,8.544 -49.529,13.551 -45.945,14.464 -89.816,34.066 -129.99,60.706 -23.088,15.31 -44.7,32.205 -65.56,50.408 -9.721,8.481 -19.383,17.098 -28.817,25.953 -1.478,1.387 -2.944,2.786 -4.41,4.186 2.009,0.376 4.017,0.769 6.021,1.181 16.613,3.412 33.044,7.972 49.019,12.538 19.538,5.584 39.304,11.604 58.417,18.994 -10.891,10.361 -21.516,20.977 -31.631,32.211 -19.047,21.151 -36.803,43.496 -53.372,66.634 -21.59,30.148 -40.021,62.662 -56.087,96.169 -1.522,3.17 -3.026,6.347 -4.502,9.533 2.972,-2.379 5.962,-4.737 8.974,-7.074 26.01,-20.171 53.434,-38.822 80.815,-56.841 38.528,-25.355 79.876,-46.302 122.782,-63.157 51.728,-20.32 104.554,-40.033 159.034,-51.569"
           id="Fill-1"
           style="fill:#5f4ea8;fill-opacity:1" />
      </g>
      <g
         id="Group-24"
         transform="translate(172,352.737)">
        <mask
           id="mask-2"
           fill="#ffffff">
          <use
             xlink:href="#path-1"
             id="use38"
             x="0"
             y="0"
             width="100%"
             height="100%" />
        </mask>
        <g
           id="Clip-23" />
      </g>
    </g>
  </g>
</svg>
